<svg class="nc-icon glyph" xmlns="http://www.w3.org/2000/svg" xmlns:xlink="http://www.w3.org/1999/xlink" x="0px" y="0px" width="32px" height="32px" viewBox="0 0 32 32">
<g>
<path opacity="0.4" fill="#444444" d="M16,32C7.17773,32,0,24.82227,0,16S7.17773,0,16,0s16,7.17773,16,16S24.82227,32,16,32z M16,4
	C9.3833,4,4,9.3833,4,16s5.3833,12,12,12s12-5.3833,12-12S22.6167,4,16,4z"></path>
<path class="nc-circle-03-easy" data-color="color-2" fill="#444444" d="M32,16h-4c0-6.6167-5.3833-12-12-12V0C24.82227,0,32,7.17773,32,16z" transform="rotate(198.7663998905951 16 16)"></path>
</g>
<script>function progressCircle3(e){return.5&gt;e?4*e*e*e:(e-1)*(2*e-2)*(2*e-2)+1}function stepCircleThreeEasy(e){startCircle3||(startCircle3=e);var t=e-startCircle3,n=progressCircle3(t/900),r=Math.min(900*n/2.5,360);900&gt;t||(startCircle3+=900);if(pathCircle3[0]){window.requestAnimationFrame(stepCircleThreeEasy);for(j = 0;  pathCircle3Number &gt; j ; j++) {pathCircle3[j].setAttribute("transform","rotate("+r+" 16 16)")}}}!function(){var e=0;window.requestAnimationFrame||(window.requestAnimationFrame=function(t){var n=(new Date).getTime(),r=Math.max(0,16-(n-e)),i=window.setTimeout(function(){t(n+r)},r);return e=n+r,i})}();var pathCircle3=document.getElementsByClassName("nc-circle-03-easy"),startCircle3=null, pathCircle3Number = pathCircle3.length;window.requestAnimationFrame(stepCircleThreeEasy);</script>
</svg>